<svg width="15" height="16" viewBox="0 0 15 16" fill="none" xmlns="http://www.w3.org/2000/svg">
<path fill-rule="evenodd" clip-rule="evenodd" d="M9.49427 15.77C4.49427 18 -3.35573 3.19 1.55427 0.69L2.99427 0L5.37427 4.55L3.99427 5.23C2.49427 6 5.57427 12 7.09427 11.23L8.49427 10.55L10.8943 15.08L9.49427 15.77ZM8.41427 6.83L10.4143 7.41C10.4927 7.15408 10.5189 6.88502 10.4914 6.61878C10.464 6.35253 10.3833 6.09451 10.2543 5.86C9.98113 5.37479 9.52884 5.01583 8.99427 4.86L8.41427 6.83ZM9.64427 2.83C10.7278 3.13334 11.6478 3.85208 12.2043 4.83C12.4708 5.30851 12.6383 5.83579 12.6967 6.38042C12.7551 6.92504 12.7033 7.47585 12.5443 8L11.3243 7.65C11.4374 7.27638 11.4744 6.88387 11.4332 6.49569C11.392 6.10751 11.2733 5.73154 11.0843 5.39C10.69 4.70839 10.0434 4.20914 9.28427 4L9.64427 2.83ZM10.2943 0.67C11.1179 0.9042 11.8871 1.29857 12.5581 1.83051C13.229 2.36246 13.7884 3.02154 14.2043 3.77C14.6157 4.50991 14.8739 5.32516 14.9632 6.16705C15.0525 7.00895 14.9713 7.86021 14.7243 8.67L13.4943 8.3C13.6917 7.6524 13.7571 6.97178 13.6866 6.29844C13.6162 5.6251 13.4114 4.97274 13.0843 4.38C12.4164 3.18047 11.3084 2.28758 9.99427 1.89L10.2943 0.67Z" fill="#0A0C0E"/>
</svg>
